<svg width="46" height="46" fill="currentColor" viewBox="0 0 24 24" xmlns="http://www.w3.org/2000/svg">
  <path d="M7.125 3.75C4.022 3.75 1.5 6.302 1.5 9.375c0 1.072.486 2.001.938 2.672.45.67.914 1.101.914 1.101l8.109 8.133.539.54.54-.54 8.108-8.133S22.5 11.517 22.5 9.375c0-3.073-2.523-5.625-5.625-5.625C14.3 3.75 12.642 5.3 12 5.953 11.358 5.3 9.7 3.75 7.125 3.75Zm0 1.5c2.241 0 4.313 2.18 4.313 2.18l.562.633.563-.633s2.07-2.18 4.312-2.18C19.157 5.25 21 7.122 21 9.375c0 1.157-1.406 2.719-1.406 2.719L12 19.688l-7.594-7.594s-.363-.349-.726-.89C3.316 10.66 3 9.954 3 9.374 3 7.122 4.843 5.25 7.125 5.25Z"></path>
</svg>